<svg id="Layer_1" data-name="Layer 1" xmlns="http://www.w3.org/2000/svg" width="929.89" height="472.57" viewBox="0 0 929.89 472.57"><defs><style>.cls-1{fill:#e6e6e6;}.cls-2{fill:#fff;}.cls-2,.cls-3,.cls-5,.cls-6{stroke:#000;stroke-miterlimit:10;stroke-width:5px;}.cls-3,.cls-5{fill:none;}.cls-3{opacity:0.9;}.cls-4{fill:#8c6239;}.cls-6{fill:#e788ea;}</style></defs><title>wallpaper-display</title><ellipse class="cls-1" cx="449.52" cy="390.07" rx="405.5" ry="82.5"/><path class="cls-2" d="M197.9,606.5H120.1a33.6,33.6,0,0,1-33.6-33.6V445.1c-1.27-7.5-4.08-16.42-11-19.6-7.23-3.33-15.58,1.16-16,0-.49-1.36,10.73-8.23,25-12a90.6,90.6,0,0,1,35.6-2c34.15,1.44,59.58.92,77.8,0,9.41-.47,22.28-1.32,29.6,7,7.1,8.07,5.3,20.58,4,26.6V572.9A33.6,33.6,0,0,1,197.9,606.5Z" transform="translate(-56.98 -226.43)"/><path class="cls-2" d="M232.5,431.5c2.65-.18,25-1.38,33,12,3,4.95,4.08,12.12-3,32A204.9,204.9,0,0,1,231.33,532" transform="translate(-56.98 -226.43)"/><path class="cls-2" d="M228,419.11c1.94-.21,40.41-4,52.5,17.39,2,3.57,6.43,13.38-4.14,43-6.27,17.56-18.72,44.59-44.86,73" transform="translate(-56.98 -226.43)"/><path class="cls-2" d="M262.5,376.5" transform="translate(-56.98 -226.43)"/><line class="cls-2" x1="31.52" y1="243.07" x2="78.52" y2="243.07"/><line class="cls-2" x1="30.02" y1="291.07" x2="55.52" y2="291.07"/><line class="cls-2" x1="32.02" y1="259.07" x2="55.52" y2="259.07"/><line class="cls-2" x1="32.02" y1="275.07" x2="55.52" y2="275.07"/><line class="cls-2" x1="31.02" y1="307.07" x2="56.52" y2="307.07"/><g id="Layer_4" data-name="Layer 4"><path class="cls-3" d="M829.67,258.7a18.5,18.5,0,0,0-3.4-25.94h0a18.5,18.5,0,0,0-25.94,3.4L633.42,453.46c-.36.47-.69,1-1,1.45-17.82.75-39.77,13.88-56.53,35.69-23.55,30.66-27.9,66.83-9.73,80.8s52,.42,75.56-30.24c16.75-21.81,23.78-46.41,19.9-63.82.4-.42.78-.87,1.15-1.34Z" transform="translate(-56.98 -226.43)"/></g><path class="cls-4" d="M785,302" transform="translate(-56.98 -226.43)"/><path class="cls-5" d="M588.5,329.5c-26.48,0-54.19.94-83,3a1189.27,1189.27,0,0,0-222,37.28" transform="translate(-56.98 -226.43)"/><path class="cls-5" d="M-58.5,346.5" transform="translate(-56.98 -226.43)"/><path class="cls-6" d="M284.5,369.5h-1c6.54,139.79,125.31,248,260,243,127.9-4.79,235-110.43,241-243a1128.52,1128.52,0,0,1-238,28A1128.49,1128.49,0,0,1,284.5,369.5Z" transform="translate(-56.98 -226.43)"/><ellipse class="cls-2" cx="185.52" cy="350.57" rx="53" ry="35.5"/><ellipse class="cls-2" cx="303.66" cy="591.7" rx="35.5" ry="53" transform="matrix(0.2, -0.98, 0.98, 0.2, -393.58, 545.25)"/><path class="cls-2" d="M952.21,540.91c-10.34,1-19.06,6-23.83,12.72a26.21,26.21,0,0,0-4.6,0,23.66,23.66,0,0,0-11.18,3.9l-.21-2.21a23.61,23.61,0,0,0-25.73-21.28L514.54,569.35a23.61,23.61,0,0,0-21.27,25.73l.16,1.69a24.12,24.12,0,0,0-10.67-1.3,26.19,26.19,0,0,0-4.52.85c-5.95-5.75-15.45-9-25.79-8-16.49,1.56-28.87,13.31-27.65,26.23s15.59,22.12,32.09,20.56c10.81-1,19.85-6.42,24.45-13.66a25.3,25.3,0,0,0,3.88-.08,24.21,24.21,0,0,0,10.23-3.28l.16,1.69A23.6,23.6,0,0,0,521.34,641l372.12-35.29A23.6,23.6,0,0,0,914.73,580l-.21-2.21a23.73,23.73,0,0,0,11.72,1.73,26,26,0,0,0,3.82-.65c5.88,6.24,15.77,9.84,26.58,8.82,16.5-1.57,28.88-13.31,27.65-26.23S968.7,539.34,952.21,540.91Z" transform="translate(-56.98 -226.43)"/><path class="cls-2" d="M88.5,16.5" transform="translate(-56.98 -226.43)"/></svg>